<svg width="117" height="14" viewBox="0 0 117 14" fill="none" xmlns="http://www.w3.org/2000/svg">
<path d="M3.212 0.526C3.476 0.982 3.77 1.54 4.094 2.2C4.418 2.86 4.748 3.556 5.084 4.288C5.42 5.008 5.75 5.746 6.074 6.502C6.41 7.246 6.716 7.936 6.992 8.572C7.268 7.936 7.568 7.246 7.892 6.502C8.216 5.746 8.546 5.008 8.882 4.288C9.218 3.556 9.548 2.86 9.872 2.2C10.196 1.54 10.49 0.982 10.754 0.526H12.806C12.914 1.438 13.016 2.41 13.112 3.442C13.208 4.462 13.292 5.512 13.364 6.592C13.448 7.66 13.52 8.74 13.58 9.832C13.652 10.912 13.712 11.968 13.76 13H11.528C11.48 11.548 11.42 10.054 11.348 8.518C11.288 6.982 11.192 5.494 11.06 4.054C10.928 4.33 10.772 4.66 10.592 5.044C10.412 5.428 10.22 5.848 10.016 6.304C9.812 6.748 9.602 7.21 9.386 7.69C9.182 8.17 8.978 8.638 8.774 9.094C8.582 9.538 8.402 9.958 8.234 10.354C8.066 10.738 7.922 11.068 7.802 11.344H6.11C5.99 11.068 5.846 10.732 5.678 10.336C5.51 9.94 5.324 9.52 5.12 9.076C4.928 8.62 4.724 8.152 4.508 7.672C4.304 7.192 4.1 6.73 3.896 6.286C3.692 5.842 3.5 5.428 3.32 5.044C3.14 4.648 2.984 4.318 2.852 4.054C2.72 5.494 2.618 6.982 2.546 8.518C2.486 10.054 2.432 11.548 2.384 13H0.152C0.2 11.968 0.254 10.9 0.314 9.796C0.386 8.692 0.458 7.6 0.53 6.52C0.614 5.428 0.704 4.372 0.8 3.352C0.896 2.332 0.998 1.39 1.106 0.526H3.212ZM25.4022 13C25.2342 12.508 25.0602 12.022 24.8802 11.542C24.7002 11.062 24.5262 10.57 24.3582 10.066H19.1022C18.9342 10.57 18.7602 11.068 18.5802 11.56C18.4122 12.04 18.2442 12.52 18.0762 13H15.7182C16.1862 11.668 16.6302 10.438 17.0502 9.31C17.4702 8.182 17.8782 7.114 18.2742 6.106C18.6822 5.098 19.0842 4.138 19.4802 3.226C19.8762 2.314 20.2842 1.414 20.7042 0.526H22.8462C23.2662 1.414 23.6742 2.314 24.0702 3.226C24.4662 4.138 24.8622 5.098 25.2582 6.106C25.6662 7.114 26.0802 8.182 26.5002 9.31C26.9322 10.438 27.3822 11.668 27.8502 13H25.4022ZM21.7302 2.938C21.4542 3.574 21.1362 4.348 20.7762 5.26C20.4282 6.172 20.0622 7.162 19.6782 8.23H23.7822C23.3982 7.162 23.0262 6.166 22.6662 5.242C22.3062 4.318 21.9942 3.55 21.7302 2.938ZM32.7265 13C31.8265 11.056 30.9565 9.022 30.1165 6.898C29.2885 4.774 28.5145 2.65 27.7945 0.526H30.2965C30.5845 1.366 30.8785 2.224 31.1785 3.1C31.4785 3.976 31.7785 4.84 32.0785 5.692C32.3785 6.532 32.6785 7.348 32.9785 8.14C33.2785 8.932 33.5725 9.658 33.8605 10.318C34.1365 9.658 34.4245 8.938 34.7245 8.158C35.0245 7.366 35.3245 6.544 35.6245 5.692C35.9365 4.84 36.2425 3.976 36.5425 3.1C36.8425 2.224 37.1305 1.366 37.4065 0.526H39.8365C39.1045 2.65 38.3245 4.774 37.4965 6.898C36.6685 9.022 35.8045 11.056 34.9045 13H32.7265ZM42.1696 0.526H44.4376V13H42.1696V0.526ZM53.6895 13.27C52.7535 13.27 51.9135 13.126 51.1695 12.838C50.4255 12.55 49.7955 12.13 49.2795 11.578C48.7635 11.014 48.3675 10.33 48.0915 9.526C47.8155 8.722 47.6775 7.798 47.6775 6.754C47.6775 5.71 47.8335 4.786 48.1455 3.982C48.4695 3.178 48.9075 2.5 49.4595 1.948C50.0115 1.384 50.6595 0.957999 51.4035 0.669999C52.1475 0.381999 52.9455 0.237999 53.7975 0.237999C54.3135 0.237999 54.7815 0.279999 55.2015 0.364C55.6215 0.435999 55.9875 0.519999 56.2995 0.616C56.6115 0.712 56.8695 0.814 57.0735 0.922C57.2775 1.03 57.4215 1.108 57.5055 1.156L56.8395 3.01C56.5515 2.83 56.1375 2.662 55.5975 2.506C55.0695 2.338 54.4935 2.254 53.8695 2.254C53.3295 2.254 52.8255 2.35 52.3575 2.542C51.8895 2.722 51.4815 2.998 51.1335 3.37C50.7975 3.742 50.5335 4.21 50.3415 4.774C50.1495 5.338 50.0535 5.992 50.0535 6.736C50.0535 7.396 50.1255 8.002 50.2695 8.554C50.4255 9.106 50.6595 9.586 50.9715 9.994C51.2835 10.39 51.6795 10.702 52.1595 10.93C52.6395 11.146 53.2155 11.254 53.8875 11.254C54.6915 11.254 55.3455 11.176 55.8495 11.02C56.3535 10.852 56.7435 10.696 57.0195 10.552L57.6315 12.406C57.4875 12.502 57.2895 12.598 57.0375 12.694C56.7975 12.79 56.5095 12.886 56.1735 12.982C55.8375 13.066 55.4595 13.132 55.0395 13.18C54.6195 13.24 54.1695 13.27 53.6895 13.27ZM72.4292 3.766C72.4292 4.198 72.3392 4.624 72.1592 5.044C71.9792 5.452 71.7452 5.854 71.4572 6.25C71.1812 6.634 70.8632 7.012 70.5032 7.384C70.1432 7.744 69.7832 8.098 69.4232 8.446C69.2312 8.626 69.0152 8.842 68.7752 9.094C68.5352 9.346 68.3072 9.598 68.0912 9.85C67.8752 10.102 67.6892 10.348 67.5332 10.588C67.3772 10.816 67.2932 11.008 67.2812 11.164H72.8252V13H64.8872C64.8752 12.904 64.8692 12.79 64.8692 12.658C64.8692 12.514 64.8692 12.406 64.8692 12.334C64.8692 11.758 64.9592 11.23 65.1392 10.75C65.3312 10.258 65.5772 9.802 65.8772 9.382C66.1772 8.962 66.5132 8.566 66.8852 8.194C67.2572 7.822 67.6292 7.456 68.0012 7.096C68.2892 6.82 68.5652 6.55 68.8292 6.286C69.0932 6.022 69.3212 5.764 69.5132 5.512C69.7172 5.248 69.8792 4.984 69.9992 4.72C70.1192 4.444 70.1792 4.162 70.1792 3.874C70.1792 3.25 69.9992 2.806 69.6392 2.542C69.2792 2.278 68.8412 2.146 68.3252 2.146C67.9892 2.146 67.6772 2.194 67.3892 2.29C67.1012 2.386 66.8432 2.5 66.6152 2.632C66.3992 2.764 66.2072 2.902 66.0392 3.046C65.8712 3.178 65.7452 3.286 65.6612 3.37L64.5812 1.84C65.0852 1.36 65.6732 0.976 66.3452 0.688C67.0292 0.387999 67.7612 0.237999 68.5412 0.237999C69.8732 0.237999 70.8512 0.555999 71.4752 1.192C72.1112 1.816 72.4292 2.674 72.4292 3.766ZM84.6648 0.399999C86.4768 0.399999 87.8628 0.729999 88.8228 1.39C89.7948 2.05 90.2808 3.082 90.2808 4.486C90.2808 5.218 90.1488 5.848 89.8848 6.376C89.6328 6.892 89.2608 7.318 88.7688 7.654C88.2768 7.978 87.6768 8.218 86.9688 8.374C86.2608 8.53 85.4508 8.608 84.5388 8.608H83.4048V13H81.1368V0.705999C81.6648 0.586 82.2468 0.508 82.8828 0.471999C83.5308 0.423999 84.1248 0.399999 84.6648 0.399999ZM84.8268 2.362C84.2508 2.362 83.7768 2.38 83.4048 2.416V6.664H84.5028C85.5948 6.664 86.4348 6.514 87.0228 6.214C87.6108 5.902 87.9048 5.32 87.9048 4.468C87.9048 4.06 87.8268 3.718 87.6708 3.442C87.5148 3.166 87.2988 2.95 87.0228 2.794C86.7468 2.638 86.4168 2.53 86.0328 2.47C85.6608 2.398 85.2588 2.362 84.8268 2.362ZM96.5097 0.399999C98.3097 0.399999 99.6837 0.729999 100.632 1.39C101.592 2.05 102.072 3.058 102.072 4.414C102.072 6.106 101.238 7.252 99.5697 7.852C99.7977 8.128 100.056 8.464 100.344 8.86C100.632 9.256 100.926 9.688 101.226 10.156C101.526 10.612 101.814 11.086 102.09 11.578C102.366 12.058 102.612 12.532 102.828 13H100.29C100.062 12.568 99.8157 12.136 99.5517 11.704C99.2877 11.26 99.0177 10.834 98.7417 10.426C98.4777 10.006 98.2137 9.616 97.9497 9.256C97.6857 8.884 97.4397 8.554 97.2117 8.266C97.0437 8.278 96.8997 8.284 96.7797 8.284C96.6597 8.284 96.5457 8.284 96.4377 8.284H95.3397V13H93.0717V0.705999C93.6237 0.586 94.2117 0.508 94.8357 0.471999C95.4597 0.423999 96.0177 0.399999 96.5097 0.399999ZM96.6717 2.362C96.1917 2.362 95.7477 2.38 95.3397 2.416V6.448H96.3297C96.8817 6.448 97.3677 6.418 97.7877 6.358C98.2077 6.298 98.5557 6.19 98.8317 6.034C99.1197 5.878 99.3357 5.668 99.4797 5.404C99.6237 5.14 99.6957 4.804 99.6957 4.396C99.6957 4.012 99.6237 3.688 99.4797 3.424C99.3357 3.16 99.1257 2.95 98.8497 2.794C98.5857 2.638 98.2677 2.53 97.8957 2.47C97.5237 2.398 97.1157 2.362 96.6717 2.362ZM107.001 6.754C107.001 7.438 107.085 8.062 107.253 8.626C107.421 9.178 107.661 9.652 107.973 10.048C108.297 10.432 108.687 10.732 109.143 10.948C109.599 11.164 110.115 11.272 110.691 11.272C111.255 11.272 111.765 11.164 112.221 10.948C112.677 10.732 113.061 10.432 113.373 10.048C113.697 9.652 113.943 9.178 114.111 8.626C114.279 8.062 114.363 7.438 114.363 6.754C114.363 6.07 114.279 5.452 114.111 4.9C113.943 4.336 113.697 3.862 113.373 3.478C113.061 3.082 112.677 2.776 112.221 2.56C111.765 2.344 111.255 2.236 110.691 2.236C110.115 2.236 109.599 2.344 109.143 2.56C108.687 2.776 108.297 3.082 107.973 3.478C107.661 3.874 107.421 4.348 107.253 4.9C107.085 5.452 107.001 6.07 107.001 6.754ZM116.739 6.754C116.739 7.822 116.577 8.764 116.253 9.58C115.941 10.396 115.509 11.08 114.957 11.632C114.417 12.172 113.781 12.58 113.049 12.856C112.317 13.132 111.537 13.27 110.709 13.27C109.881 13.27 109.095 13.132 108.351 12.856C107.619 12.58 106.977 12.172 106.425 11.632C105.885 11.08 105.453 10.396 105.129 9.58C104.805 8.764 104.643 7.822 104.643 6.754C104.643 5.686 104.805 4.75 105.129 3.946C105.453 3.13 105.891 2.446 106.443 1.894C107.007 1.342 107.655 0.927999 108.387 0.651999C109.119 0.375999 109.893 0.237999 110.709 0.237999C111.525 0.237999 112.299 0.375999 113.031 0.651999C113.763 0.927999 114.399 1.342 114.939 1.894C115.491 2.446 115.929 3.13 116.253 3.946C116.577 4.75 116.739 5.686 116.739 6.754Z" fill="white"/>
</svg>
